<svg width="2100" height="600" viewBox="0 0 2100 600" fill="none" xmlns="http://www.w3.org/2000/svg">
<rect width="2100" height="600" fill="#F5F5F5"/>
<rect x="397" y="155" width="290" height="290" rx="145" fill="#0FC281"/>
<rect x="434.579" y="192.578" width="214.843" height="214.843" rx="104.385" fill="#2EE5A3"/>
<rect x="473.296" y="231.296" width="137.788" height="137.788" rx="68.894" fill="#5CFFC4"/>
<path d="M878.392 337.704L854.484 313.796C848.636 315.401 842.673 316.204 836.596 316.204C825.473 316.204 815.325 313.624 806.152 308.464C796.979 303.189 789.697 295.908 784.308 286.62C779.033 277.217 776.396 266.668 776.396 254.972C776.396 243.276 779.033 232.784 784.308 223.496C789.697 214.093 796.979 206.812 806.152 201.652C815.325 196.377 825.473 193.74 836.596 193.74C847.833 193.74 858.039 196.377 867.212 201.652C876.385 206.812 883.609 214.036 888.884 223.324C894.159 232.612 896.796 243.161 896.796 254.972C896.796 266.439 894.273 276.759 889.228 285.932C884.183 295.105 877.245 302.329 868.416 307.604L898.688 337.704H878.392ZM792.392 254.972C792.392 264.489 794.284 272.86 798.068 280.084C801.967 287.308 807.241 292.869 813.892 296.768C820.657 300.667 828.225 302.616 836.596 302.616C844.967 302.616 852.477 300.667 859.128 296.768C865.893 292.869 871.168 287.308 874.952 280.084C878.851 272.86 880.8 264.489 880.8 254.972C880.8 245.34 878.851 236.969 874.952 229.86C871.168 222.636 865.951 217.075 859.3 213.176C852.649 209.277 845.081 207.328 836.596 207.328C828.111 207.328 820.543 209.277 813.892 213.176C807.241 217.075 801.967 222.636 798.068 229.86C794.284 236.969 792.392 245.34 792.392 254.972ZM1001.39 220.744V315H985.735V301.068C982.753 305.884 978.568 309.668 973.179 312.42C967.904 315.057 962.056 316.376 955.635 316.376C948.296 316.376 941.703 314.885 935.855 311.904C930.007 308.808 925.363 304.221 921.923 298.144C918.597 292.067 916.935 284.671 916.935 275.956V220.744H932.415V273.892C932.415 283.18 934.765 290.347 939.467 295.392C944.168 300.323 950.589 302.788 958.731 302.788C967.101 302.788 973.695 300.208 978.511 295.048C983.327 289.888 985.735 282.377 985.735 272.516V220.744H1001.39ZM1073.74 219.024C1085.2 219.024 1094.49 222.521 1101.6 229.516C1108.71 236.396 1112.27 246.372 1112.27 259.444V315H1096.79V261.68C1096.79 252.277 1094.44 245.111 1089.73 240.18C1085.03 235.135 1078.61 232.612 1070.47 232.612C1062.21 232.612 1055.62 235.192 1050.69 240.352C1045.87 245.512 1043.47 253.023 1043.47 262.884V315H1027.81V220.744H1043.47V234.16C1046.56 229.344 1050.75 225.617 1056.02 222.98C1061.41 220.343 1067.32 219.024 1073.74 219.024ZM1156.93 233.644V289.2C1156.93 293.787 1157.9 297.055 1159.85 299.004C1161.8 300.839 1165.18 301.756 1170 301.756H1181.52V315H1167.42C1158.7 315 1152.17 312.993 1147.81 308.98C1143.45 304.967 1141.27 298.373 1141.27 289.2V233.644H1129.06V220.744H1141.27V197.008H1156.93V220.744H1181.52V233.644H1156.93ZM1286.49 264.26C1286.49 267.241 1286.31 270.395 1285.97 273.72H1210.63C1211.21 283.008 1214.36 290.289 1220.09 295.564C1225.94 300.724 1232.99 303.304 1241.25 303.304C1248.02 303.304 1253.63 301.756 1258.11 298.66C1262.69 295.449 1265.9 291.207 1267.74 285.932H1284.59C1282.07 294.991 1277.03 302.387 1269.46 308.12C1261.89 313.739 1252.49 316.548 1241.25 316.548C1232.31 316.548 1224.28 314.541 1217.17 310.528C1210.18 306.515 1204.67 300.839 1200.66 293.5C1196.64 286.047 1194.64 277.447 1194.64 267.7C1194.64 257.953 1196.59 249.411 1200.49 242.072C1204.38 234.733 1209.83 229.115 1216.83 225.216C1223.94 221.203 1232.08 219.196 1241.25 219.196C1250.19 219.196 1258.11 221.145 1264.99 225.044C1271.87 228.943 1277.14 234.332 1280.81 241.212C1284.59 247.977 1286.49 255.66 1286.49 264.26ZM1270.32 260.992C1270.32 255.029 1269 249.927 1266.36 245.684C1263.72 241.327 1260.11 238.059 1255.53 235.88C1251.05 233.587 1246.07 232.44 1240.56 232.44C1232.65 232.44 1225.88 234.963 1220.27 240.008C1214.76 245.053 1211.61 252.048 1210.81 260.992H1270.32ZM1420.49 219.024C1427.83 219.024 1434.37 220.572 1440.1 223.668C1445.84 226.649 1450.37 231.179 1453.69 237.256C1457.02 243.333 1458.68 250.729 1458.68 259.444V315H1443.2V261.68C1443.2 252.277 1440.85 245.111 1436.15 240.18C1431.56 235.135 1425.31 232.612 1417.4 232.612C1409.26 232.612 1402.78 235.249 1397.96 240.524C1393.15 245.684 1390.74 253.195 1390.74 263.056V315H1375.26V261.68C1375.26 252.277 1372.91 245.111 1368.21 240.18C1363.62 235.135 1357.37 232.612 1349.46 232.612C1341.32 232.612 1334.84 235.249 1330.02 240.524C1325.21 245.684 1322.8 253.195 1322.8 263.056V315H1307.15V220.744H1322.8V234.332C1325.89 229.401 1330.02 225.617 1335.18 222.98C1340.46 220.343 1346.25 219.024 1352.55 219.024C1360.47 219.024 1367.46 220.801 1373.54 224.356C1379.62 227.911 1384.15 233.128 1387.13 240.008C1389.76 233.357 1394.12 228.197 1400.2 224.528C1406.28 220.859 1413.04 219.024 1420.49 219.024Z" fill="#3B3B3B"/>
<path d="M791.608 376.544V380.096H777.064V391.376H788.872V394.928H777.064V410H772.696V376.544H791.608ZM808.356 410.432C805.892 410.432 803.652 409.872 801.636 408.752C799.652 407.632 798.084 406.048 796.932 404C795.812 401.92 795.252 399.52 795.252 396.8C795.252 394.112 795.828 391.744 796.98 389.696C798.164 387.616 799.764 386.032 801.78 384.944C803.796 383.824 806.052 383.264 808.548 383.264C811.044 383.264 813.3 383.824 815.316 384.944C817.332 386.032 818.916 387.6 820.068 389.648C821.252 391.696 821.844 394.08 821.844 396.8C821.844 399.52 821.236 401.92 820.02 404C818.836 406.048 817.22 407.632 815.172 408.752C813.124 409.872 810.852 410.432 808.356 410.432ZM808.356 406.592C809.924 406.592 811.396 406.224 812.772 405.488C814.148 404.752 815.252 403.648 816.084 402.176C816.948 400.704 817.38 398.912 817.38 396.8C817.38 394.688 816.964 392.896 816.132 391.424C815.3 389.952 814.212 388.864 812.868 388.16C811.524 387.424 810.068 387.056 808.5 387.056C806.9 387.056 805.428 387.424 804.084 388.16C802.772 388.864 801.716 389.952 800.916 391.424C800.116 392.896 799.716 394.688 799.716 396.8C799.716 398.944 800.1 400.752 800.868 402.224C801.668 403.696 802.724 404.8 804.036 405.536C805.348 406.24 806.788 406.592 808.356 406.592ZM831.955 387.968C832.723 386.464 833.811 385.296 835.219 384.464C836.659 383.632 838.403 383.216 840.451 383.216V387.728H839.299C834.403 387.728 831.955 390.384 831.955 395.696V410H827.587V383.696H831.955V387.968ZM863.618 387.296V402.8C863.618 404.08 863.89 404.992 864.434 405.536C864.978 406.048 865.922 406.304 867.266 406.304H870.482V410H866.546C864.114 410 862.29 409.44 861.074 408.32C859.858 407.2 859.25 405.36 859.25 402.8V387.296H855.842V383.696H859.25V377.072H863.618V383.696H870.482V387.296H863.618ZM888.83 383.216C890.814 383.216 892.606 383.648 894.206 384.512C895.806 385.344 897.054 386.608 897.95 388.304C898.878 390 899.342 392.064 899.342 394.496V410H895.022V395.12C895.022 392.496 894.366 390.496 893.054 389.12C891.742 387.712 889.95 387.008 887.678 387.008C885.374 387.008 883.534 387.728 882.158 389.168C880.814 390.608 880.142 392.704 880.142 395.456V410H875.774V374.48H880.142V387.44C881.006 386.096 882.19 385.056 883.694 384.32C885.23 383.584 886.942 383.216 888.83 383.216ZM930.477 395.84C930.477 396.672 930.429 397.552 930.333 398.48H909.309C909.469 401.072 910.349 403.104 911.949 404.576C913.581 406.016 915.549 406.736 917.853 406.736C919.741 406.736 921.309 406.304 922.557 405.44C923.837 404.544 924.733 403.36 925.245 401.888H929.949C929.245 404.416 927.837 406.48 925.725 408.08C923.613 409.648 920.989 410.432 917.853 410.432C915.357 410.432 913.117 409.872 911.133 408.752C909.181 407.632 907.645 406.048 906.525 404C905.405 401.92 904.845 399.52 904.845 396.8C904.845 394.08 905.389 391.696 906.477 389.648C907.565 387.6 909.085 386.032 911.037 384.944C913.021 383.824 915.293 383.264 917.853 383.264C920.349 383.264 922.557 383.808 924.477 384.896C926.397 385.984 927.869 387.488 928.893 389.408C929.949 391.296 930.477 393.44 930.477 395.84ZM925.965 394.928C925.965 393.264 925.597 391.84 924.861 390.656C924.125 389.44 923.117 388.528 921.837 387.92C920.589 387.28 919.197 386.96 917.661 386.96C915.453 386.96 913.565 387.664 911.997 389.072C910.461 390.48 909.581 392.432 909.357 394.928H925.965ZM947.408 396.8C947.408 394.08 947.952 391.712 949.04 389.696C950.128 387.648 951.632 386.064 953.552 384.944C955.504 383.824 957.728 383.264 960.224 383.264C963.456 383.264 966.112 384.048 968.192 385.616C970.304 387.184 971.696 389.36 972.368 392.144H967.664C967.216 390.544 966.336 389.28 965.024 388.352C963.744 387.424 962.144 386.96 960.224 386.96C957.728 386.96 955.712 387.824 954.176 389.552C952.64 391.248 951.872 393.664 951.872 396.8C951.872 399.968 952.64 402.416 954.176 404.144C955.712 405.872 957.728 406.736 960.224 406.736C962.144 406.736 963.744 406.288 965.024 405.392C966.304 404.496 967.184 403.216 967.664 401.552H972.368C971.664 404.24 970.256 406.4 968.144 408.032C966.032 409.632 963.392 410.432 960.224 410.432C957.728 410.432 955.504 409.872 953.552 408.752C951.632 407.632 950.128 406.048 949.04 404C947.952 401.952 947.408 399.552 947.408 396.8ZM989.668 410.432C987.204 410.432 984.964 409.872 982.948 408.752C980.964 407.632 979.396 406.048 978.244 404C977.124 401.92 976.564 399.52 976.564 396.8C976.564 394.112 977.14 391.744 978.292 389.696C979.476 387.616 981.076 386.032 983.092 384.944C985.108 383.824 987.364 383.264 989.86 383.264C992.356 383.264 994.612 383.824 996.628 384.944C998.644 386.032 1000.23 387.6 1001.38 389.648C1002.56 391.696 1003.16 394.08 1003.16 396.8C1003.16 399.52 1002.55 401.92 1001.33 404C1000.15 406.048 998.532 407.632 996.484 408.752C994.436 409.872 992.164 410.432 989.668 410.432ZM989.668 406.592C991.236 406.592 992.708 406.224 994.084 405.488C995.46 404.752 996.564 403.648 997.396 402.176C998.26 400.704 998.692 398.912 998.692 396.8C998.692 394.688 998.276 392.896 997.444 391.424C996.612 389.952 995.524 388.864 994.18 388.16C992.836 387.424 991.38 387.056 989.812 387.056C988.212 387.056 986.74 387.424 985.396 388.16C984.084 388.864 983.028 389.952 982.228 391.424C981.428 392.896 981.028 394.688 981.028 396.8C981.028 398.944 981.412 400.752 982.18 402.224C982.98 403.696 984.036 404.8 985.348 405.536C986.66 406.24 988.1 406.592 989.668 406.592ZM1040.53 383.216C1042.58 383.216 1044.4 383.648 1046 384.512C1047.6 385.344 1048.87 386.608 1049.8 388.304C1050.72 390 1051.19 392.064 1051.19 394.496V410H1046.87V395.12C1046.87 392.496 1046.21 390.496 1044.9 389.12C1043.62 387.712 1041.88 387.008 1039.67 387.008C1037.4 387.008 1035.59 387.744 1034.24 389.216C1032.9 390.656 1032.23 392.752 1032.23 395.504V410H1027.91V395.12C1027.91 392.496 1027.25 390.496 1025.94 389.12C1024.66 387.712 1022.92 387.008 1020.71 387.008C1018.44 387.008 1016.63 387.744 1015.28 389.216C1013.94 390.656 1013.27 392.752 1013.27 395.504V410H1008.9V383.696H1013.27V387.488C1014.13 386.112 1015.28 385.056 1016.72 384.32C1018.2 383.584 1019.81 383.216 1021.57 383.216C1023.78 383.216 1025.73 383.712 1027.43 384.704C1029.12 385.696 1030.39 387.152 1031.22 389.072C1031.96 387.216 1033.17 385.776 1034.87 384.752C1036.56 383.728 1038.45 383.216 1040.53 383.216ZM1089.98 383.216C1092.03 383.216 1093.86 383.648 1095.46 384.512C1097.06 385.344 1098.32 386.608 1099.25 388.304C1100.18 390 1100.64 392.064 1100.64 394.496V410H1096.32V395.12C1096.32 392.496 1095.66 390.496 1094.35 389.12C1093.07 387.712 1091.33 387.008 1089.12 387.008C1086.85 387.008 1085.04 387.744 1083.7 389.216C1082.35 390.656 1081.68 392.752 1081.68 395.504V410H1077.36V395.12C1077.36 392.496 1076.7 390.496 1075.39 389.12C1074.11 387.712 1072.37 387.008 1070.16 387.008C1067.89 387.008 1066.08 387.744 1064.74 389.216C1063.39 390.656 1062.72 392.752 1062.72 395.504V410H1058.35V383.696H1062.72V387.488C1063.58 386.112 1064.74 385.056 1066.18 384.32C1067.65 383.584 1069.26 383.216 1071.02 383.216C1073.23 383.216 1075.18 383.712 1076.88 384.704C1078.58 385.696 1079.84 387.152 1080.67 389.072C1081.41 387.216 1082.62 385.776 1084.32 384.752C1086.02 383.728 1087.9 383.216 1089.98 383.216ZM1131.13 383.696V410H1126.77V406.112C1125.93 407.456 1124.77 408.512 1123.26 409.28C1121.79 410.016 1120.16 410.384 1118.37 410.384C1116.32 410.384 1114.48 409.968 1112.85 409.136C1111.21 408.272 1109.92 406.992 1108.96 405.296C1108.03 403.6 1107.57 401.536 1107.57 399.104V383.696H1111.89V398.528C1111.89 401.12 1112.54 403.12 1113.85 404.528C1115.17 405.904 1116.96 406.592 1119.23 406.592C1121.57 406.592 1123.41 405.872 1124.75 404.432C1126.09 402.992 1126.77 400.896 1126.77 398.144V383.696H1131.13ZM1151.32 383.216C1154.52 383.216 1157.12 384.192 1159.1 386.144C1161.08 388.064 1162.08 390.848 1162.08 394.496V410H1157.76V395.12C1157.76 392.496 1157.1 390.496 1155.79 389.12C1154.48 387.712 1152.68 387.008 1150.41 387.008C1148.11 387.008 1146.27 387.728 1144.89 389.168C1143.55 390.608 1142.88 392.704 1142.88 395.456V410H1138.51V383.696H1142.88V387.44C1143.74 386.096 1144.91 385.056 1146.38 384.32C1147.88 383.584 1149.53 383.216 1151.32 383.216ZM1171.47 379.424C1170.64 379.424 1169.93 379.136 1169.36 378.56C1168.78 377.984 1168.49 377.28 1168.49 376.448C1168.49 375.616 1168.78 374.912 1169.36 374.336C1169.93 373.76 1170.64 373.472 1171.47 373.472C1172.27 373.472 1172.94 373.76 1173.48 374.336C1174.06 374.912 1174.35 375.616 1174.35 376.448C1174.35 377.28 1174.06 377.984 1173.48 378.56C1172.94 379.136 1172.27 379.424 1171.47 379.424ZM1173.58 383.696V410H1169.21V383.696H1173.58ZM1186.35 387.296V402.8C1186.35 404.08 1186.62 404.992 1187.17 405.536C1187.71 406.048 1188.66 406.304 1190 406.304H1193.22V410H1189.28C1186.85 410 1185.02 409.44 1183.81 408.32C1182.59 407.2 1181.98 405.36 1181.98 402.8V387.296H1178.58V383.696H1181.98V377.072H1186.35V383.696H1193.22V387.296H1186.35ZM1221.16 383.696L1205.32 422.384H1200.81L1206 409.712L1195.39 383.696H1200.24L1208.49 405.008L1216.65 383.696H1221.16ZM1230.07 403.952L1224.69 416.864H1221.76L1225.27 403.952H1230.07ZM1253.24 387.488C1254.17 386.208 1255.44 385.168 1257.04 384.368C1258.67 383.536 1260.48 383.12 1262.46 383.12C1264.8 383.12 1266.91 383.68 1268.8 384.8C1270.68 385.92 1272.17 387.52 1273.26 389.6C1274.35 391.648 1274.89 394 1274.89 396.656C1274.89 399.312 1274.35 401.696 1273.26 403.808C1272.17 405.888 1270.67 407.52 1268.75 408.704C1266.86 409.856 1264.76 410.432 1262.46 410.432C1260.41 410.432 1258.59 410.032 1256.99 409.232C1255.42 408.432 1254.17 407.408 1253.24 406.16V410H1247.77V374.48H1253.24V387.488ZM1269.32 396.656C1269.32 394.832 1268.94 393.264 1268.17 391.952C1267.44 390.608 1266.44 389.6 1265.2 388.928C1263.98 388.224 1262.67 387.872 1261.26 387.872C1259.88 387.872 1258.57 388.224 1257.32 388.928C1256.11 389.632 1255.12 390.656 1254.35 392C1253.61 393.344 1253.24 394.928 1253.24 396.752C1253.24 398.576 1253.61 400.176 1254.35 401.552C1255.12 402.896 1256.11 403.92 1257.32 404.624C1258.57 405.328 1259.88 405.68 1261.26 405.68C1262.67 405.68 1263.98 405.328 1265.2 404.624C1266.44 403.888 1267.44 402.832 1268.17 401.456C1268.94 400.08 1269.32 398.48 1269.32 396.656ZM1304.11 383.552L1287.89 422.432H1282.22L1287.6 409.568L1277.18 383.552H1283.28L1290.72 403.712L1298.45 383.552H1304.11ZM1327.09 388.016V402.656C1327.09 403.648 1327.32 404.368 1327.77 404.816C1328.25 405.232 1329.05 405.44 1330.17 405.44H1333.53V410H1329.21C1326.74 410 1324.85 409.424 1323.54 408.272C1322.23 407.12 1321.57 405.248 1321.57 402.656V388.016H1318.45V383.552H1321.57V376.976H1327.09V383.552H1333.53V388.016H1327.09ZM1352.25 383.12C1354.26 383.12 1356.06 383.552 1357.62 384.416C1359.22 385.28 1360.47 386.56 1361.37 388.256C1362.3 389.952 1362.76 392 1362.76 394.4V410H1357.34V395.216C1357.34 392.848 1356.74 391.04 1355.56 389.792C1354.38 388.512 1352.76 387.872 1350.71 387.872C1348.66 387.872 1347.03 388.512 1345.82 389.792C1344.63 391.04 1344.04 392.848 1344.04 395.216V410H1338.57V374.48H1344.04V386.624C1344.97 385.504 1346.14 384.64 1347.54 384.032C1348.98 383.424 1350.55 383.12 1352.25 383.12ZM1393.98 396.128C1393.98 397.12 1393.92 398.016 1393.79 398.816H1373.58C1373.74 400.928 1374.52 402.624 1375.93 403.904C1377.34 405.184 1379.07 405.824 1381.12 405.824C1384.06 405.824 1386.14 404.592 1387.36 402.128H1393.26C1392.46 404.56 1391 406.56 1388.89 408.128C1386.81 409.664 1384.22 410.432 1381.12 410.432C1378.59 410.432 1376.32 409.872 1374.3 408.752C1372.32 407.6 1370.75 406 1369.6 403.952C1368.48 401.872 1367.92 399.472 1367.92 396.752C1367.92 394.032 1368.46 391.648 1369.55 389.6C1370.67 387.52 1372.22 385.92 1374.2 384.8C1376.22 383.68 1378.52 383.12 1381.12 383.12C1383.61 383.12 1385.84 383.664 1387.79 384.752C1389.74 385.84 1391.26 387.376 1392.35 389.36C1393.44 391.312 1393.98 393.568 1393.98 396.128ZM1388.27 394.4C1388.24 392.384 1387.52 390.768 1386.11 389.552C1384.7 388.336 1382.96 387.728 1380.88 387.728C1378.99 387.728 1377.37 388.336 1376.03 389.552C1374.68 390.736 1373.88 392.352 1373.63 394.4H1388.27ZM1410.01 396.752C1410.01 394.032 1410.55 391.648 1411.64 389.6C1412.76 387.52 1414.3 385.92 1416.25 384.8C1418.2 383.68 1420.44 383.12 1422.97 383.12C1426.17 383.12 1428.81 383.888 1430.89 385.424C1433 386.928 1434.43 389.088 1435.16 391.904H1429.26C1428.78 390.592 1428.01 389.568 1426.95 388.832C1425.9 388.096 1424.57 387.728 1422.97 387.728C1420.73 387.728 1418.94 388.528 1417.59 390.128C1416.28 391.696 1415.63 393.904 1415.63 396.752C1415.63 399.6 1416.28 401.824 1417.59 403.424C1418.94 405.024 1420.73 405.824 1422.97 405.824C1426.14 405.824 1428.23 404.432 1429.26 401.648H1435.16C1434.39 404.336 1432.95 406.48 1430.84 408.08C1428.73 409.648 1426.11 410.432 1422.97 410.432C1420.44 410.432 1418.2 409.872 1416.25 408.752C1414.3 407.6 1412.76 406 1411.64 403.952C1410.55 401.872 1410.01 399.472 1410.01 396.752ZM1452.09 410.432C1449.59 410.432 1447.34 409.872 1445.32 408.752C1443.3 407.6 1441.72 406 1440.57 403.952C1439.42 401.872 1438.84 399.472 1438.84 396.752C1438.84 394.064 1439.43 391.68 1440.62 389.6C1441.8 387.52 1443.42 385.92 1445.46 384.8C1447.51 383.68 1449.8 383.12 1452.33 383.12C1454.86 383.12 1457.14 383.68 1459.19 384.8C1461.24 385.92 1462.86 387.52 1464.04 389.6C1465.22 391.68 1465.82 394.064 1465.82 396.752C1465.82 399.44 1465.21 401.824 1463.99 403.904C1462.78 405.984 1461.11 407.6 1459 408.752C1456.92 409.872 1454.62 410.432 1452.09 410.432ZM1452.09 405.68C1453.5 405.68 1454.81 405.344 1456.02 404.672C1457.27 404 1458.28 402.992 1459.05 401.648C1459.82 400.304 1460.2 398.672 1460.2 396.752C1460.2 394.832 1459.83 393.216 1459.1 391.904C1458.36 390.56 1457.38 389.552 1456.17 388.88C1454.95 388.208 1453.64 387.872 1452.23 387.872C1450.82 387.872 1449.51 388.208 1448.3 388.88C1447.11 389.552 1446.17 390.56 1445.46 391.904C1444.76 393.216 1444.41 394.832 1444.41 396.752C1444.41 399.6 1445.13 401.808 1446.57 403.376C1448.04 404.912 1449.88 405.68 1452.09 405.68ZM1503.24 383.12C1505.32 383.12 1507.18 383.552 1508.81 384.416C1510.47 385.28 1511.77 386.56 1512.7 388.256C1513.66 389.952 1514.14 392 1514.14 394.4V410H1508.71V395.216C1508.71 392.848 1508.12 391.04 1506.94 389.792C1505.75 388.512 1504.14 387.872 1502.09 387.872C1500.04 387.872 1498.41 388.512 1497.19 389.792C1496.01 391.04 1495.42 392.848 1495.42 395.216V410H1489.99V395.216C1489.99 392.848 1489.4 391.04 1488.22 389.792C1487.03 388.512 1485.42 387.872 1483.37 387.872C1481.32 387.872 1479.69 388.512 1478.47 389.792C1477.29 391.04 1476.7 392.848 1476.7 395.216V410H1471.23V383.552H1476.7V386.576C1477.59 385.488 1478.73 384.64 1480.11 384.032C1481.48 383.424 1482.95 383.12 1484.52 383.12C1486.63 383.12 1488.52 383.568 1490.19 384.464C1491.85 385.36 1493.13 386.656 1494.03 388.352C1494.83 386.752 1496.07 385.488 1497.77 384.56C1499.47 383.6 1501.29 383.12 1503.24 383.12ZM1553.12 383.12C1555.2 383.12 1557.05 383.552 1558.68 384.416C1560.35 385.28 1561.64 386.56 1562.57 388.256C1563.53 389.952 1564.01 392 1564.01 394.4V410H1558.59V395.216C1558.59 392.848 1558 391.04 1556.81 389.792C1555.63 388.512 1554.01 387.872 1551.96 387.872C1549.92 387.872 1548.28 388.512 1547.07 389.792C1545.88 391.04 1545.29 392.848 1545.29 395.216V410H1539.87V395.216C1539.87 392.848 1539.28 391.04 1538.09 389.792C1536.91 388.512 1535.29 387.872 1533.24 387.872C1531.2 387.872 1529.56 388.512 1528.35 389.792C1527.16 391.04 1526.57 392.848 1526.57 395.216V410H1521.1V383.552H1526.57V386.576C1527.47 385.488 1528.6 384.64 1529.98 384.032C1531.36 383.424 1532.83 383.12 1534.4 383.12C1536.51 383.12 1538.4 383.568 1540.06 384.464C1541.72 385.36 1543 386.656 1543.9 388.352C1544.7 386.752 1545.95 385.488 1547.64 384.56C1549.34 383.6 1551.16 383.12 1553.12 383.12ZM1594.93 383.552V410H1589.46V406.88C1588.59 407.968 1587.46 408.832 1586.05 409.472C1584.67 410.08 1583.2 410.384 1581.63 410.384C1579.55 410.384 1577.68 409.952 1576.02 409.088C1574.38 408.224 1573.09 406.944 1572.13 405.248C1571.2 403.552 1570.74 401.504 1570.74 399.104V383.552H1576.16V398.288C1576.16 400.656 1576.75 402.48 1577.94 403.76C1579.12 405.008 1580.74 405.632 1582.78 405.632C1584.83 405.632 1586.45 405.008 1587.63 403.76C1588.85 402.48 1589.46 400.656 1589.46 398.288V383.552H1594.93ZM1615.49 383.12C1617.57 383.12 1619.43 383.552 1621.06 384.416C1622.72 385.28 1624.02 386.56 1624.95 388.256C1625.87 389.952 1626.34 392 1626.34 394.4V410H1620.91V395.216C1620.91 392.848 1620.32 391.04 1619.14 389.792C1617.95 388.512 1616.34 387.872 1614.29 387.872C1612.24 387.872 1610.61 388.512 1609.39 389.792C1608.21 391.04 1607.62 392.848 1607.62 395.216V410H1602.15V383.552H1607.62V386.576C1608.51 385.488 1609.65 384.64 1611.03 384.032C1612.43 383.424 1613.92 383.12 1615.49 383.12ZM1636.1 380.048C1635.11 380.048 1634.28 379.712 1633.61 379.04C1632.93 378.368 1632.6 377.536 1632.6 376.544C1632.6 375.552 1632.93 374.72 1633.61 374.048C1634.28 373.376 1635.11 373.04 1636.1 373.04C1637.06 373.04 1637.88 373.376 1638.55 374.048C1639.22 374.72 1639.56 375.552 1639.56 376.544C1639.56 377.536 1639.22 378.368 1638.55 379.04C1637.88 379.712 1637.06 380.048 1636.1 380.048ZM1638.79 383.552V410H1633.32V383.552H1638.79ZM1652.36 388.016V402.656C1652.36 403.648 1652.58 404.368 1653.03 404.816C1653.51 405.232 1654.31 405.44 1655.43 405.44H1658.79V410H1654.47C1652.01 410 1650.12 409.424 1648.81 408.272C1647.5 407.12 1646.84 405.248 1646.84 402.656V388.016H1643.72V383.552H1646.84V376.976H1652.36V383.552H1658.79V388.016H1652.36ZM1687.64 383.552L1671.42 422.432H1665.75L1671.13 409.568L1660.71 383.552H1666.81L1674.25 403.712L1681.98 383.552H1687.64ZM1693.26 410.288C1692.43 410.288 1691.72 410 1691.15 409.424C1690.57 408.848 1690.28 408.144 1690.28 407.312C1690.28 406.48 1690.57 405.776 1691.15 405.2C1691.72 404.624 1692.43 404.336 1693.26 404.336C1694.06 404.336 1694.73 404.624 1695.28 405.2C1695.85 405.776 1696.14 406.48 1696.14 407.312C1696.14 408.144 1695.85 408.848 1695.28 409.424C1694.73 410 1694.06 410.288 1693.26 410.288Z" fill="#3B3B3B"/>
</svg>
